<svg width="25" height="25" viewBox="0 0 25 25" fill="none" xmlns="http://www.w3.org/2000/svg">
<g id="bell" clip-path="url(#clip0_188_4284)">
<path id="Vector" d="M10.71 5.5C10.71 4.96957 10.9207 4.46086 11.2957 4.08579C11.6708 3.71071 12.1795 3.5 12.71 3.5C13.2404 3.5 13.7491 3.71071 14.1242 4.08579C14.4992 4.46086 14.71 4.96957 14.71 5.5C15.8584 6.04303 16.8374 6.88833 17.542 7.9453C18.2467 9.00227 18.6504 10.2311 18.71 11.5V14.5C18.7852 15.1217 19.0054 15.7171 19.3528 16.2381C19.7002 16.7592 20.165 17.1914 20.71 17.5H4.70996C5.2549 17.1914 5.71977 16.7592 6.06715 16.2381C6.41453 15.7171 6.63471 15.1217 6.70996 14.5V11.5C6.76952 10.2311 7.17326 9.00227 7.87791 7.9453C8.58256 6.88833 9.56155 6.04303 10.71 5.5Z" stroke="#181100" stroke-width="1.5" stroke-linecap="round" stroke-linejoin="round"/>
<path id="Vector_2" d="M9.70996 17.5V18.5C9.70996 19.2956 10.026 20.0587 10.5886 20.6213C11.1512 21.1839 11.9143 21.5 12.71 21.5C13.5056 21.5 14.2687 21.1839 14.8313 20.6213C15.3939 20.0587 15.71 19.2956 15.71 18.5V17.5" stroke="#181100" stroke-width="1.5" stroke-linecap="round" stroke-linejoin="round"/>
</g>
<defs>
<clipPath id="clip0_188_4284">
<rect width="24" height="24" fill="white" transform="translate(0.709961 0.5)"/>
</clipPath>
</defs>
</svg>
