<svg width="20" height="20" viewBox="0 0 20 20" fill="none" xmlns="http://www.w3.org/2000/svg">
<g id="dots-vertical" clip-path="url(#clip0_1944_3132)">
<path id="Vector" d="M8.99829 10.4103C8.99829 10.6203 9.0817 10.8216 9.23017 10.9701C9.37863 11.1186 9.57999 11.202 9.78996 11.202C9.99992 11.202 10.2013 11.1186 10.3498 10.9701C10.4982 10.8216 10.5816 10.6203 10.5816 10.4103C10.5816 10.2004 10.4982 9.99899 10.3498 9.85053C10.2013 9.70206 9.99992 9.61865 9.78996 9.61865C9.57999 9.61865 9.37863 9.70206 9.23017 9.85053C9.0817 9.99899 8.99829 10.2004 8.99829 10.4103Z" stroke="#25408F" stroke-width="1.5" stroke-linecap="round" stroke-linejoin="round"/>
<path id="Vector_2" d="M8.99829 15.9518C8.99829 16.1618 9.0817 16.3631 9.23017 16.5116C9.37863 16.6601 9.57999 16.7435 9.78996 16.7435C9.99992 16.7435 10.2013 16.6601 10.3498 16.5116C10.4982 16.3631 10.5816 16.1618 10.5816 15.9518C10.5816 15.7419 10.4982 15.5405 10.3498 15.392C10.2013 15.2436 9.99992 15.1602 9.78996 15.1602C9.57999 15.1602 9.37863 15.2436 9.23017 15.392C9.0817 15.5405 8.99829 15.7419 8.99829 15.9518Z" stroke="#25408F" stroke-width="1.5" stroke-linecap="round" stroke-linejoin="round"/>
<path id="Vector_3" d="M8.99829 4.86833C8.99829 5.07829 9.0817 5.27965 9.23017 5.42812C9.37863 5.57659 9.57999 5.65999 9.78996 5.65999C9.99992 5.65999 10.2013 5.57659 10.3498 5.42812C10.4982 5.27965 10.5816 5.07829 10.5816 4.86833C10.5816 4.65836 10.4982 4.457 10.3498 4.30853C10.2013 4.16007 9.99992 4.07666 9.78996 4.07666C9.57999 4.07666 9.37863 4.16007 9.23017 4.30853C9.0817 4.457 8.99829 4.65836 8.99829 4.86833Z" stroke="#25408F" stroke-width="1.5" stroke-linecap="round" stroke-linejoin="round"/>
</g>
<defs>
<clipPath id="clip0_1944_3132">
<rect width="19" height="19" fill="white" transform="translate(0.290039 0.910156)"/>
</clipPath>
</defs>
</svg>
