<svg width="19" height="20" viewBox="0 0 19 20" fill="none" xmlns="http://www.w3.org/2000/svg">
<g id="edit" clip-path="url(#clip0_2084_1154)">
<path id="Vector" d="M5.5415 6.13184H4.74984C4.32991 6.13184 3.92718 6.29865 3.63025 6.59558C3.33332 6.89252 3.1665 7.29524 3.1665 7.71517V14.8402C3.1665 15.2601 3.33332 15.6628 3.63025 15.9598C3.92718 16.2567 4.32991 16.4235 4.74984 16.4235H11.8748C12.2948 16.4235 12.6975 16.2567 12.9944 15.9598C13.2914 15.6628 13.4582 15.2601 13.4582 14.8402V14.0485" stroke="#181100" stroke-width="1.5" stroke-linecap="round" stroke-linejoin="round"/>
<path id="Vector_2" d="M16.1381 5.80354C16.4499 5.49175 16.6251 5.06886 16.6251 4.62792C16.6251 4.18697 16.4499 3.76409 16.1381 3.45229C15.8263 3.1405 15.4034 2.96533 14.9625 2.96533C14.5216 2.96533 14.0987 3.1405 13.7869 3.45229L7.125 10.0904V12.4654H9.5L16.1381 5.80354Z" stroke="#181100" stroke-width="1.5" stroke-linecap="round" stroke-linejoin="round"/>
<path id="Vector_3" d="M12.6667 4.54883L15.0417 6.92383" stroke="#181100" stroke-width="1.5" stroke-linecap="round" stroke-linejoin="round"/>
</g>
<defs>
<clipPath id="clip0_2084_1154">
<rect width="19" height="19" fill="white" transform="translate(0 0.590332)"/>
</clipPath>
</defs>
</svg>
