<svg width="25" height="25" viewBox="0 0 25 25" fill="none" xmlns="http://www.w3.org/2000/svg">
<g clip-path="url(#clip0_1904_2370)">
<path d="M10.2998 12.9949C10.2998 13.5254 10.5105 14.0341 10.8856 14.4091C11.2607 14.7842 11.7694 14.9949 12.2998 14.9949C12.8302 14.9949 13.3389 14.7842 13.714 14.4091C14.0891 14.0341 14.2998 13.5254 14.2998 12.9949C14.2998 12.4645 14.0891 11.9558 13.714 11.5807C13.3389 11.2056 12.8302 10.9949 12.2998 10.9949C11.7694 10.9949 11.2607 11.2056 10.8856 11.5807C10.5105 11.9558 10.2998 12.4645 10.2998 12.9949Z" stroke="#A09D96" stroke-width="2" stroke-linecap="round" stroke-linejoin="round"/>
<path d="M21.2998 12.9949C18.8998 16.9949 15.8998 18.9949 12.2998 18.9949C8.6998 18.9949 5.6998 16.9949 3.2998 12.9949C5.6998 8.99493 8.6998 6.99493 12.2998 6.99493C15.8998 6.99493 18.8998 8.99493 21.2998 12.9949Z" stroke="#A09D96" stroke-width="2" stroke-linecap="round" stroke-linejoin="round"/>
</g>
<defs>
<clipPath id="clip0_1904_2370">
<rect width="24" height="24" fill="white" transform="translate(0.299805 0.994934)"/>
</clipPath>
</defs>
</svg>
