<svg width="21" height="21" viewBox="0 0 21 21" fill="none" xmlns="http://www.w3.org/2000/svg">
<g id="file" clip-path="url(#clip0_1278_18043)">
<path id="Vector" d="M12.1665 2.58008V5.91341C12.1665 6.13442 12.2543 6.34639 12.4106 6.50267C12.5669 6.65895 12.7788 6.74674 12.9998 6.74674H16.3332" stroke="#3F392B" stroke-width="1.04881" stroke-linecap="round" stroke-linejoin="round"/>
<path id="Vector_2" d="M14.6665 17.5801H6.33317C5.89114 17.5801 5.46722 17.4045 5.15466 17.0919C4.8421 16.7794 4.6665 16.3554 4.6665 15.9134V4.24674C4.6665 3.80472 4.8421 3.38079 5.15466 3.06823C5.46722 2.75567 5.89114 2.58008 6.33317 2.58008H12.1665L16.3332 6.74674V15.9134C16.3332 16.3554 16.1576 16.7794 15.845 17.0919C15.5325 17.4045 15.1085 17.5801 14.6665 17.5801Z" stroke="#3F392B" stroke-width="1.04881" stroke-linecap="round" stroke-linejoin="round"/>
</g>
<defs>
<clipPath id="clip0_1278_18043">
<rect width="20" height="20" fill="white" transform="translate(0.5 0.0800781)"/>
</clipPath>
</defs>
</svg>
