<svg width="24" height="25" viewBox="0 0 24 25" fill="none" xmlns="http://www.w3.org/2000/svg">
<g id="file-import" clip-path="url(#clip0_2102_4165)">
<path id="Vector" d="M14 3.8252V7.8252C14 8.09041 14.1054 8.34477 14.2929 8.5323C14.4804 8.71984 14.7348 8.8252 15 8.8252H19" stroke="#172757" stroke-width="1.5" stroke-linecap="round" stroke-linejoin="round"/>
<path id="Vector_2" d="M5 13.8252V5.8252C5 5.29476 5.21071 4.78605 5.58579 4.41098C5.96086 4.03591 6.46957 3.8252 7 3.8252H14L19 8.8252V19.8252C19 20.3556 18.7893 20.8643 18.4142 21.2394C18.0391 21.6145 17.5304 21.8252 17 21.8252H11.5M2 19.8252H9M9 19.8252L6 16.8252M9 19.8252L6 22.8252" stroke="#172757" stroke-width="1.5" stroke-linecap="round" stroke-linejoin="round"/>
</g>
<defs>
<clipPath id="clip0_2102_4165">
<rect width="24" height="24" fill="white" transform="translate(0 0.825195)"/>
</clipPath>
</defs>
</svg>
