<svg width="24" height="25" viewBox="0 0 24 25" fill="none" xmlns="http://www.w3.org/2000/svg">
<g id="user-bolt" clip-path="url(#clip0_1944_4115)">
<path id="Vector" d="M8 7.20996C8 8.27083 8.42143 9.28824 9.17157 10.0384C9.92172 10.7885 10.9391 11.21 12 11.21C13.0609 11.21 14.0783 10.7885 14.8284 10.0384C15.5786 9.28824 16 8.27083 16 7.20996C16 6.14909 15.5786 5.13168 14.8284 4.38153C14.0783 3.63139 13.0609 3.20996 12 3.20996C10.9391 3.20996 9.92172 3.63139 9.17157 4.38153C8.42143 5.13168 8 6.14909 8 7.20996Z" stroke="#181100" stroke-width="1.5" stroke-linecap="round" stroke-linejoin="round"/>
<path id="Vector_2" d="M6 21.21V19.21C6 18.1491 6.42143 17.1317 7.17157 16.3815C7.92172 15.6314 8.93913 15.21 10 15.21H14C14.267 15.21 14.529 15.236 14.781 15.286" stroke="#181100" stroke-width="1.5" stroke-linecap="round" stroke-linejoin="round"/>
<path id="Vector_3" d="M19 16.21L17 19.21H21L19 22.21" stroke="#181100" stroke-width="1.5" stroke-linecap="round" stroke-linejoin="round"/>
</g>
<defs>
<clipPath id="clip0_1944_4115">
<rect width="24" height="24" fill="white" transform="translate(0 0.209961)"/>
</clipPath>
</defs>
</svg>
