<svg width="24" height="25" viewBox="0 0 24 25" fill="none" xmlns="http://www.w3.org/2000/svg">
<g id="users-group" clip-path="url(#clip0_1944_4182)">
<path id="Vector" d="M10 13.21C10 13.7404 10.2107 14.2491 10.5858 14.6242C10.9609 14.9992 11.4696 15.21 12 15.21C12.5304 15.21 13.0391 14.9992 13.4142 14.6242C13.7893 14.2491 14 13.7404 14 13.21C14 12.6795 13.7893 12.1708 13.4142 11.7957C13.0391 11.4207 12.5304 11.21 12 11.21C11.4696 11.21 10.9609 11.4207 10.5858 11.7957C10.2107 12.1708 10 12.6795 10 13.21Z" stroke="#181100" stroke-width="1.5" stroke-linecap="round" stroke-linejoin="round"/>
<path id="Vector_2" d="M8 21.21V20.21C8 19.6795 8.21071 19.1708 8.58579 18.7957C8.96086 18.4207 9.46957 18.21 10 18.21H14C14.5304 18.21 15.0391 18.4207 15.4142 18.7957C15.7893 19.1708 16 19.6795 16 20.21V21.21" stroke="#181100" stroke-width="1.5" stroke-linecap="round" stroke-linejoin="round"/>
<path id="Vector_3" d="M15 5.20996C15 5.74039 15.2107 6.2491 15.5858 6.62417C15.9609 6.99925 16.4696 7.20996 17 7.20996C17.5304 7.20996 18.0391 6.99925 18.4142 6.62417C18.7893 6.2491 19 5.74039 19 5.20996C19 4.67953 18.7893 4.17082 18.4142 3.79575C18.0391 3.42067 17.5304 3.20996 17 3.20996C16.4696 3.20996 15.9609 3.42067 15.5858 3.79575C15.2107 4.17082 15 4.67953 15 5.20996Z" stroke="#181100" stroke-width="1.5" stroke-linecap="round" stroke-linejoin="round"/>
<path id="Vector_4" d="M17 10.21H19C19.5304 10.21 20.0391 10.4207 20.4142 10.7957C20.7893 11.1708 21 11.6795 21 12.21V13.21" stroke="#181100" stroke-width="1.5" stroke-linecap="round" stroke-linejoin="round"/>
<path id="Vector_5" d="M5 5.20996C5 5.74039 5.21071 6.2491 5.58579 6.62417C5.96086 6.99925 6.46957 7.20996 7 7.20996C7.53043 7.20996 8.03914 6.99925 8.41421 6.62417C8.78929 6.2491 9 5.74039 9 5.20996C9 4.67953 8.78929 4.17082 8.41421 3.79575C8.03914 3.42067 7.53043 3.20996 7 3.20996C6.46957 3.20996 5.96086 3.42067 5.58579 3.79575C5.21071 4.17082 5 4.67953 5 5.20996Z" stroke="#181100" stroke-width="1.5" stroke-linecap="round" stroke-linejoin="round"/>
<path id="Vector_6" d="M3 13.21V12.21C3 11.6795 3.21071 11.1708 3.58579 10.7957C3.96086 10.4207 4.46957 10.21 5 10.21H7" stroke="#181100" stroke-width="1.5" stroke-linecap="round" stroke-linejoin="round"/>
</g>
<defs>
<clipPath id="clip0_1944_4182">
<rect width="24" height="24" fill="white" transform="translate(0 0.209961)"/>
</clipPath>
</defs>
</svg>
