<svg width="24" height="25" viewBox="0 0 24 25" fill="none" xmlns="http://www.w3.org/2000/svg">
<g id="building-fortress" clip-path="url(#clip0_1944_898)">
<path id="Vector" d="M7 21.21H8C8.26522 21.21 8.51957 21.1046 8.70711 20.9171C8.89464 20.7295 9 20.4752 9 20.21V19.21C9 18.4143 9.31607 17.6512 9.87868 17.0886C10.4413 16.526 11.2044 16.21 12 16.21C12.7956 16.21 13.5587 16.526 14.1213 17.0886C14.6839 17.6512 15 18.4143 15 19.21M18 21.21H19C19.2652 21.21 19.5196 21.1046 19.7071 20.9171C19.8946 20.7295 20 20.4752 20 20.21V5.20996L17 3.20996L14 5.20996V11.21H10V5.20996L7 3.20996L4 5.20996V20.21C4 20.4752 4.10536 20.7295 4.29289 20.9171C4.48043 21.1046 4.73478 21.21 5 21.21H7M15 19.21V20.21C15 20.4752 15.1054 20.7295 15.2929 20.9171C15.4804 21.1046 15.7348 21.21 16 21.21H18" stroke="#181100" stroke-width="1.5" stroke-linecap="round" stroke-linejoin="round"/>
<path id="Vector_2" d="M7 7.20996V7.21996" stroke="#181100" stroke-width="1.5" stroke-linecap="round" stroke-linejoin="round"/>
<path id="Vector_3" d="M7 10.21V10.22" stroke="#181100" stroke-width="1.5" stroke-linecap="round" stroke-linejoin="round"/>
<path id="Vector_4" d="M7 13.21V13.22" stroke="#181100" stroke-width="2" stroke-linecap="round" stroke-linejoin="round"/>
<path id="Vector_5" d="M17 7.20996V7.21996" stroke="#181100" stroke-width="2" stroke-linecap="round" stroke-linejoin="round"/>
<path id="Vector_6" d="M17 10.21V10.22" stroke="#181100" stroke-width="2" stroke-linecap="round" stroke-linejoin="round"/>
<path id="Vector_7" d="M17 13.21V13.22" stroke="#181100" stroke-width="2" stroke-linecap="round" stroke-linejoin="round"/>
</g>
<defs>
<clipPath id="clip0_1944_898">
<rect width="24" height="24" fill="white" transform="translate(0 0.209961)"/>
</clipPath>
</defs>
</svg>
