<svg width="24" height="25" viewBox="0 0 24 25" fill="none" xmlns="http://www.w3.org/2000/svg">
<g id="home-dollar" clip-path="url(#clip0_1944_5654)">
<path id="Vector" d="M19 10.21L12 3.20996L3 12.21H5V19.21C5 19.7404 5.21071 20.2491 5.58579 20.6242C5.96086 20.9992 6.46957 21.21 7 21.21H13" stroke="#1D3F8A" stroke-width="1.5" stroke-linecap="round" stroke-linejoin="round"/>
<path id="Vector_2" d="M9 21.21V15.21C9 14.6795 9.21071 14.1708 9.58579 13.7957C9.96086 13.4207 10.4696 13.21 11 13.21H13C13.387 13.21 13.748 13.32 14.054 13.51" stroke="#1D3F8A" stroke-width="1.5" stroke-linecap="round" stroke-linejoin="round"/>
<path id="Vector_3" d="M21 15.21H18.5C18.1022 15.21 17.7206 15.368 17.4393 15.6493C17.158 15.9306 17 16.3121 17 16.71C17 17.1078 17.158 17.4893 17.4393 17.7706C17.7206 18.0519 18.1022 18.21 18.5 18.21H19.5C19.8978 18.21 20.2794 18.368 20.5607 18.6493C20.842 18.9306 21 19.3121 21 19.71C21 20.1078 20.842 20.4893 20.5607 20.7706C20.2794 21.0519 19.8978 21.21 19.5 21.21H17" stroke="#1D3F8A" stroke-width="1.5" stroke-linecap="round" stroke-linejoin="round"/>
<path id="Vector_4" d="M19 21.21V22.21M19 14.21V15.21" stroke="#1D3F8A" stroke-width="2" stroke-linecap="round" stroke-linejoin="round"/>
</g>
<defs>
<clipPath id="clip0_1944_5654">
<rect width="24" height="24" fill="white" transform="translate(0 0.209961)"/>
</clipPath>
</defs>
</svg>
