<svg width="18" height="19" viewBox="0 0 18 19" fill="none" xmlns="http://www.w3.org/2000/svg">
<g id="search" clip-path="url(#clip0_1276_12118)">
<path id="Vector" d="M2.25 7.56982C2.25 8.25926 2.3858 8.94195 2.64963 9.57891C2.91347 10.2159 3.30018 10.7946 3.78769 11.2821C4.2752 11.7696 4.85395 12.1564 5.49091 12.4202C6.12787 12.684 6.81056 12.8198 7.5 12.8198C8.18944 12.8198 8.87213 12.684 9.50909 12.4202C10.146 12.1564 10.7248 11.7696 11.2123 11.2821C11.6998 10.7946 12.0865 10.2159 12.3504 9.57891C12.6142 8.94195 12.75 8.25926 12.75 7.56982C12.75 6.88038 12.6142 6.1977 12.3504 5.56074C12.0865 4.92378 11.6998 4.34502 11.2123 3.85751C10.7248 3.37001 10.146 2.98329 9.50909 2.71946C8.87213 2.45562 8.18944 2.31982 7.5 2.31982C6.81056 2.31982 6.12787 2.45562 5.49091 2.71946C4.85395 2.98329 4.2752 3.37001 3.78769 3.85751C3.30018 4.34502 2.91347 4.92378 2.64963 5.56074C2.3858 6.1977 2.25 6.88038 2.25 7.56982Z" stroke="#25408F" stroke-width="1.5" stroke-linecap="round" stroke-linejoin="round"/>
<path id="Vector_2" d="M15.75 15.8198L11.25 11.3198" stroke="#25408F" stroke-width="2" stroke-linecap="round" stroke-linejoin="round"/>
</g>
<defs>
<clipPath id="clip0_1276_12118">
<rect width="18" height="18" fill="white" transform="translate(0 0.0698242)"/>
</clipPath>
</defs>
</svg>
