<svg width="19" height="20" viewBox="0 0 19 20" fill="none" xmlns="http://www.w3.org/2000/svg">
<g id="trash" clip-path="url(#clip0_2084_434)">
<path id="Vector" d="M3.1665 5.83154H15.8332" stroke="#181100" stroke-width="1.5" stroke-linecap="round" stroke-linejoin="round"/>
<path id="Vector_2" d="M7.9165 8.99854V13.7485" stroke="#181100" stroke-width="1.5" stroke-linecap="round" stroke-linejoin="round"/>
<path id="Vector_3" d="M11.0833 8.99854V13.7485" stroke="#181100" stroke-width="1.5" stroke-linecap="round" stroke-linejoin="round"/>
<path id="Vector_4" d="M3.9585 5.83154L4.75016 15.3315C4.75016 15.7515 4.91698 16.1542 5.21391 16.4511C5.51084 16.7481 5.91357 16.9149 6.3335 16.9149H12.6668C13.0868 16.9149 13.4895 16.7481 13.7864 16.4511C14.0833 16.1542 14.2502 15.7515 14.2502 15.3315L15.0418 5.83154" stroke="#181100" stroke-width="1.5" stroke-linecap="round" stroke-linejoin="round"/>
<path id="Vector_5" d="M7.125 5.83171V3.45671C7.125 3.24674 7.20841 3.04538 7.35687 2.89691C7.50534 2.74845 7.7067 2.66504 7.91667 2.66504H11.0833C11.2933 2.66504 11.4947 2.74845 11.6431 2.89691C11.7916 3.04538 11.875 3.24674 11.875 3.45671V5.83171" stroke="#181100" stroke-width="1.5" stroke-linecap="round" stroke-linejoin="round"/>
</g>
<defs>
<clipPath id="clip0_2084_434">
<rect width="19" height="19" fill="white" transform="translate(0 0.290039)"/>
</clipPath>
</defs>
</svg>
