<svg width="24" height="25" viewBox="0 0 24 25" fill="none" xmlns="http://www.w3.org/2000/svg">
<g id="building-community" clip-path="url(#clip0_1944_823)">
<path id="Vector" d="M13 21.21V14.21L8 9.20996L3 14.21V21.21H8M13 21.21H8M13 21.21H21V4.20996C21 3.94474 20.8946 3.69039 20.7071 3.50285C20.5196 3.31532 20.2652 3.20996 20 3.20996H10C9.73478 3.20996 9.48043 3.31532 9.29289 3.50285C9.10536 3.69039 9 3.94474 9 4.20996V10.21M8 21.21V17.21" stroke="#181100" stroke-width="1.5" stroke-linecap="round" stroke-linejoin="round"/>
<path id="Vector_2" d="M13 7.20996V7.21996" stroke="#181100" stroke-width="1.5" stroke-linecap="round" stroke-linejoin="round"/>
<path id="Vector_3" d="M17 7.20996V7.21996" stroke="#181100" stroke-width="1.5" stroke-linecap="round" stroke-linejoin="round"/>
<path id="Vector_4" d="M17 11.21V11.22" stroke="#181100" stroke-width="2" stroke-linecap="round" stroke-linejoin="round"/>
<path id="Vector_5" d="M17 15.21V15.22" stroke="#181100" stroke-width="2" stroke-linecap="round" stroke-linejoin="round"/>
</g>
<defs>
<clipPath id="clip0_1944_823">
<rect width="24" height="24" fill="white" transform="translate(0 0.209961)"/>
</clipPath>
</defs>
</svg>
