<svg width="47" height="47" viewBox="0 0 47 47" fill="none" xmlns="http://www.w3.org/2000/svg">
<g id="cloud-upload" clip-path="url(#clip0_1278_18006)">
<path id="Vector" d="M13.9972 35.0841C11.598 35.0841 9.29714 34.1724 7.60069 32.5497C5.90423 30.927 4.95117 28.7262 4.95117 26.4314C4.95117 24.1365 5.90423 21.9357 7.60069 20.313C9.29714 18.6903 11.598 17.7786 13.9972 17.7786C14.5638 15.2543 16.2214 13.036 18.6054 11.6116C19.7858 10.9063 21.109 10.4172 22.4995 10.1722C23.8899 9.92714 25.3204 9.93098 26.7092 10.1835C28.098 10.436 29.4179 10.9322 30.5936 11.6438C31.7693 12.3554 32.7778 13.2685 33.5614 14.3309C34.3451 15.3933 34.8886 16.5841 35.1608 17.8356C35.4331 19.087 35.4288 20.3744 35.1482 21.6243H37.0711C38.8559 21.6243 40.5677 22.3333 41.8298 23.5954C43.0919 24.8575 43.8009 26.5693 43.8009 28.3542C43.8009 30.139 43.0919 31.8508 41.8298 33.1129C40.5677 34.375 38.8559 35.0841 37.0711 35.0841H35.1482" stroke="#25408F" stroke-width="1.04881" stroke-linecap="round" stroke-linejoin="round"/>
<path id="Vector_2" d="M17.8428 29.3153L23.6112 23.5469L29.3797 29.3153" stroke="#25408F" stroke-width="1.04881" stroke-linecap="round" stroke-linejoin="round"/>
<path id="Vector_3" d="M23.6113 23.5469V40.8523" stroke="#25408F" stroke-width="1.04881" stroke-linecap="round" stroke-linejoin="round"/>
</g>
<defs>
<clipPath id="clip0_1278_18006">
<rect width="46.1478" height="46.1478" fill="white" transform="translate(0.537354 0.473145)"/>
</clipPath>
</defs>
</svg>
