<svg width="24" height="25" viewBox="0 0 24 25" fill="none" xmlns="http://www.w3.org/2000/svg">
<g id="file-export" clip-path="url(#clip0_1944_3139)">
<path id="Vector" d="M14 3.82471V7.82471C14 8.08992 14.1054 8.34428 14.2929 8.53181C14.4804 8.71935 14.7348 8.82471 15 8.82471H19" stroke="#172757" stroke-width="1.5" stroke-linecap="round" stroke-linejoin="round"/>
<path id="Vector_2" d="M11.5 21.8247H7C6.46957 21.8247 5.96086 21.614 5.58579 21.2389C5.21071 20.8638 5 20.3551 5 19.8247V5.82471C5 5.29427 5.21071 4.78557 5.58579 4.41049C5.96086 4.03542 6.46957 3.82471 7 3.82471H14L19 8.82471V13.8247M14 19.8247H21M21 19.8247L18 16.8247M21 19.8247L18 22.8247" stroke="#172757" stroke-width="1.5" stroke-linecap="round" stroke-linejoin="round"/>
</g>
<defs>
<clipPath id="clip0_1944_3139">
<rect width="24" height="24" fill="white" transform="translate(0 0.824707)"/>
</clipPath>
</defs>
</svg>
