<svg width="19" height="20" viewBox="0 0 19 20" fill="none" xmlns="http://www.w3.org/2000/svg">
<g id="eye" clip-path="url(#clip0_2084_1225)">
<path id="Vector" d="M7.9165 10.39C7.9165 10.8099 8.08332 11.2126 8.38025 11.5096C8.67718 11.8065 9.07991 11.9733 9.49984 11.9733C9.91976 11.9733 10.3225 11.8065 10.6194 11.5096C10.9164 11.2126 11.0832 10.8099 11.0832 10.39C11.0832 9.97005 10.9164 9.56732 10.6194 9.27039C10.3225 8.97346 9.91976 8.80664 9.49984 8.80664C9.07991 8.80664 8.67718 8.97346 8.38025 9.27039C8.08332 9.56732 7.9165 9.97005 7.9165 10.39Z" stroke="#181100" stroke-width="1.5" stroke-linecap="round" stroke-linejoin="round"/>
<path id="Vector_2" d="M16.625 10.3901C14.725 13.5568 12.35 15.1401 9.5 15.1401C6.65 15.1401 4.275 13.5568 2.375 10.3901C4.275 7.22347 6.65 5.64014 9.5 5.64014C12.35 5.64014 14.725 7.22347 16.625 10.3901Z" stroke="#181100" stroke-width="1.5" stroke-linecap="round" stroke-linejoin="round"/>
</g>
<defs>
<clipPath id="clip0_2084_1225">
<rect width="19" height="19" fill="white" transform="translate(0 0.890137)"/>
</clipPath>
</defs>
</svg>
