<svg width="24" height="24" viewBox="0 0 24 24" fill="none" xmlns="http://www.w3.org/2000/svg">
<g clip-path="url(#clip0_3_15)">
<path fill-rule="evenodd" clip-rule="evenodd" d="M12.5811 5.40626L13.8286 7.43165C13.5105 7.60841 13.1545 7.71656 12.7864 7.74828C12.4183 7.78001 12.0473 7.7345 11.7003 7.61507C11.3532 7.49563 11.0387 7.30525 10.7795 7.05767C10.5203 6.8101 10.323 6.51152 10.2017 6.18353C10.0804 5.85554 10.0381 5.50633 10.0781 5.16114C10.118 4.81594 10.2391 4.4834 10.4326 4.18754C10.626 3.89168 10.8871 3.6399 11.1968 3.4504C11.5065 3.26091 11.8572 3.13842 12.2235 3.0918L12.5832 5.40626H12.5811ZM17.5982 13.1484C18.5065 13.1489 19.3978 13.3799 20.1779 13.8169C20.9581 14.254 21.598 14.8808 22.0302 15.6313C22.4623 16.3818 22.6706 17.228 22.6331 18.0806C22.5955 18.9331 22.3135 19.7602 21.8169 20.4746L24 22.707L22.4947 24L20.3905 21.8262C19.7356 22.2349 18.988 22.4941 18.2074 22.5829C17.4268 22.6717 16.6349 22.5877 15.895 22.3376C15.1552 22.0875 14.4879 21.6782 13.9465 21.1426C13.4051 20.6069 13.0046 19.9597 12.7771 19.2527C12.5496 18.5456 12.5014 17.7984 12.6362 17.0707C12.7711 16.3431 13.0854 15.6551 13.5539 15.0619C14.0224 14.4687 14.6321 13.9867 15.3344 13.6545C16.0366 13.3222 16.8119 13.1489 17.5982 13.1484ZM15.6999 18.3262C15.6735 18.3004 15.6498 18.2723 15.6292 18.2422C15.6094 18.2122 15.5921 18.1809 15.5772 18.1484C15.5252 18.0312 15.5139 17.9015 15.5449 17.7778C15.5759 17.6541 15.6476 17.5428 15.7499 17.4597C15.8522 17.3766 15.9799 17.3259 16.1146 17.3149C16.2494 17.3039 16.3844 17.3331 16.5004 17.3984C16.5363 17.4184 16.5698 17.442 16.6002 17.4688C16.7748 17.627 16.831 17.6641 17.016 17.8223L17.1844 17.9649L18.5546 16.582C19.1347 16.0215 20.06 16.8418 19.4819 17.416L17.7853 19.1406L17.698 19.2246C17.583 19.3389 17.4252 19.4067 17.2579 19.4136C17.0907 19.4206 16.9271 19.3661 16.8019 19.2617L16.6647 19.1406L16.3382 18.8731C16.0846 18.666 15.9369 18.5527 15.6999 18.3281V18.3262ZM17.6024 14.1367C18.3957 14.1367 19.1712 14.3577 19.8308 14.7718C20.4904 15.1859 21.0045 15.7744 21.308 16.463C21.6115 17.1515 21.6908 17.9091 21.5359 18.64C21.381 19.3709 20.9988 20.0422 20.4377 20.5691C19.8765 21.0959 19.1617 21.4546 18.3835 21.5997C17.6054 21.7449 16.7989 21.67 16.0661 21.3845C15.3332 21.0991 14.707 20.6159 14.2665 19.996C13.8261 19.3762 13.5912 18.6476 13.5916 17.9024C13.5922 16.9035 14.015 15.9457 14.7671 15.2395C15.5192 14.5334 16.539 14.1367 17.6024 14.1367ZM7.38526 4.95704H8.54545C8.57522 4.95704 8.60378 4.96815 8.62484 4.98793C8.64589 5.00771 8.65772 5.03454 8.65772 5.06251V7.21094C8.65772 7.23892 8.64589 7.26574 8.62484 7.28552C8.60378 7.3053 8.57522 7.31641 8.54545 7.31641H7.38526C7.35549 7.31641 7.32693 7.3053 7.30587 7.28552C7.28482 7.26574 7.27299 7.23892 7.27299 7.21094V5.06251C7.27299 5.03454 7.28482 5.00771 7.30587 4.98793C7.32693 4.96815 7.35549 4.95704 7.38526 4.95704ZM18.2968 3.2754H20.1889C20.5446 3.27694 20.8853 3.41036 21.1368 3.64665C21.3883 3.88293 21.5304 4.20296 21.532 4.53712V11.0918C21.4925 11.4824 20.4592 11.4922 20.3718 11.0918V4.53712C20.3722 4.51365 20.3676 4.49035 20.3583 4.46856C20.349 4.44677 20.3353 4.42692 20.3178 4.41016C20.3 4.39296 20.2786 4.3794 20.255 4.37032C20.2314 4.36125 20.2061 4.35686 20.1805 4.35743H18.2968V11.0918C18.197 11.4492 17.3362 11.5039 17.1429 11.0918V1.26173C17.1434 1.23807 17.1389 1.21455 17.1294 1.19261C17.12 1.17067 17.1059 1.15077 17.088 1.13413C17.0701 1.11749 17.0488 1.10446 17.0253 1.09584C17.0018 1.08722 16.9768 1.08319 16.9516 1.08399H1.33692C1.31194 1.08366 1.28714 1.08797 1.26394 1.09669C1.24075 1.1054 1.21962 1.11835 1.20177 1.13477C1.18362 1.15117 1.16927 1.1709 1.15961 1.19275C1.14995 1.21459 1.14519 1.23808 1.14564 1.26173V18.3594C1.14536 18.3831 1.15012 18.4065 1.15963 18.4285C1.16914 18.4504 1.18322 18.4703 1.20104 18.487C1.21886 18.5038 1.24006 18.517 1.26339 18.5259C1.28673 18.5349 1.31172 18.5393 1.33692 18.5391H10.5082C11.0904 18.5938 11.107 19.5371 10.5082 19.6211H4.36629V21.6328C4.36568 21.6568 4.37035 21.6806 4.38001 21.7028C4.38968 21.725 4.40412 21.745 4.42243 21.7617C4.44027 21.7782 4.4614 21.7911 4.48459 21.7998C4.50779 21.8085 4.53259 21.8128 4.55757 21.8125H10.5082C10.924 21.8574 11.0654 22.7559 10.5082 22.8965H4.57421C4.39778 22.8974 4.22296 22.865 4.0601 22.8013C3.89724 22.7375 3.74966 22.6437 3.6261 22.5254C3.50028 22.4087 3.40039 22.2698 3.33222 22.1165C3.26404 21.9633 3.22895 21.7989 3.22898 21.6328V19.6211H1.34316C0.987439 19.6196 0.646755 19.4861 0.39522 19.2498C0.143685 19.0136 0.00164822 18.6935 7.673e-06 18.3594V1.26173C-0.000592678 1.09604 0.0340422 0.931915 0.10188 0.778976C0.169718 0.626036 0.269391 0.487365 0.395052 0.371101C0.519239 0.253585 0.66694 0.160299 0.829655 0.0966116C0.992369 0.0329243 1.16689 9.30394e-05 1.34316 7.2078e-06H16.962C17.1384 -0.000556745 17.3131 0.0319783 17.4759 0.0957031C17.6387 0.159428 17.7863 0.253059 17.9101 0.371101C18.0337 0.4884 18.1315 0.627435 18.1978 0.780256C18.2642 0.933076 18.2978 1.09668 18.2968 1.26173V3.2754ZM3.11878 11.0176C2.98957 11.0098 2.86836 10.9561 2.77979 10.8674C2.69121 10.7787 2.64191 10.6617 2.64191 10.54C2.64191 10.4184 2.69121 10.3014 2.77979 10.2127C2.86836 10.124 2.98957 10.0703 3.11878 10.0625H12.288C12.4172 10.0703 12.5384 10.124 12.627 10.2127C12.7155 10.3014 12.7648 10.4184 12.7648 10.54C12.7648 10.6617 12.7155 10.7787 12.627 10.8674C12.5384 10.9561 12.4172 11.0098 12.288 11.0176H3.11878ZM3.11878 13.5098C2.98368 13.5098 2.85411 13.4594 2.75858 13.3696C2.66305 13.2799 2.60938 13.1582 2.60938 13.0313C2.60938 12.9043 2.66305 12.7826 2.75858 12.6929C2.85411 12.6032 2.98368 12.5527 3.11878 12.5527H10.7785C10.9136 12.5527 11.0432 12.6032 11.1387 12.6929C11.2342 12.7826 11.2879 12.9043 11.2879 13.0313C11.2879 13.1582 11.2342 13.2799 11.1387 13.3696C11.0432 13.4594 10.9136 13.5098 10.7785 13.5098H3.11878ZM3.177 16.2656C3.0419 16.2656 2.91233 16.2152 2.8168 16.1255C2.72127 16.0357 2.6676 15.914 2.6676 15.7871C2.6676 15.6602 2.72127 15.5385 2.8168 15.4488C2.91233 15.359 3.0419 15.3086 3.177 15.3086H8.90515C9.04025 15.3086 9.16981 15.359 9.26535 15.4488C9.36088 15.5385 9.41454 15.6602 9.41454 15.7871C9.41454 15.914 9.36088 16.0357 9.26535 16.1255C9.16981 16.2152 9.04025 16.2656 8.90515 16.2656H3.177ZM3.23106 3.63868H4.39332C4.4231 3.63868 4.45165 3.64979 4.47271 3.66957C4.49377 3.68935 4.5056 3.71618 4.5056 3.74415V7.20509C4.50506 7.2329 4.49306 7.25944 4.47212 7.27911C4.45118 7.29878 4.42293 7.31005 4.39332 7.31055H3.24353C3.21375 7.31055 3.1852 7.29944 3.16414 7.27966C3.14309 7.25988 3.13126 7.23306 3.13126 7.20509V3.74415C3.13126 3.71618 3.14309 3.68935 3.16414 3.66957C3.1852 3.64979 3.21375 3.63868 3.24353 3.63868H3.23106ZM5.31024 2.89844H6.47042C6.5002 2.89844 6.52876 2.90956 6.54981 2.92934C6.57087 2.94912 6.5827 2.97594 6.5827 3.00391V7.20509C6.5827 7.23306 6.57087 7.25988 6.54981 7.27966C6.52876 7.29944 6.5002 7.31055 6.47042 7.31055H5.3144C5.28462 7.31055 5.25606 7.29944 5.23501 7.27966C5.21395 7.25988 5.20212 7.23306 5.20212 7.20509V3.00391C5.20212 2.97594 5.21395 2.94912 5.23501 2.92934C5.25606 2.90956 5.28462 2.89844 5.3144 2.89844H5.31024ZM13.0989 5.50587H15.4213C15.4199 5.86416 15.3243 6.21658 15.1429 6.53178C14.9616 6.84698 14.7001 7.11517 14.3817 7.31251L13.0989 5.50587ZM12.839 5.07813L12.6997 2.58399L12.972 2.57227C13.6486 2.56449 14.3029 2.79905 14.8019 3.22825C15.3009 3.65746 15.6071 4.24908 15.6583 4.88282L15.6708 5.03907L12.8473 5.23438V5.07423L12.839 5.07813ZM13.0469 2.88868L13.1592 4.9004L15.2986 4.75196C15.2194 4.24104 14.9494 3.7732 14.537 3.43191C14.1245 3.09063 13.5964 2.8981 13.0469 2.88868Z" fill="#25408F"/>
</g>
<defs>
<clipPath id="clip0_3_15">
<rect width="24" height="24" fill="white"/>
</clipPath>
</defs>
</svg>
