<svg width="19" height="19" viewBox="0 0 19 19" fill="none" xmlns="http://www.w3.org/2000/svg">
<path d="M18.7375 11.3683L16.3479 5.87048L13.7576 7.07489L13.9309 7.47636C13.379 7.66056 12.7725 7.70307 12.1569 7.59916C11.7555 7.53304 11.3497 7.53304 10.9529 7.59916C10.6382 7.65112 10.3236 7.7503 10.0271 7.88728C9.89032 7.94868 9.75807 8.02425 9.62582 8.10927L8.47203 8.69494C8.29417 8.66188 8.11632 8.63826 7.93846 8.62881C7.30912 8.60048 6.71627 8.43044 6.2055 8.13288L6.45176 7.78337L4.13963 6.05941L0.737549 10.9526L3.04056 12.6718L3.28683 12.3223C3.72463 12.7285 4.06666 13.2575 4.29012 13.8668C4.30836 13.9188 4.3266 13.966 4.34941 14.018L4.05754 14.4336C3.76567 14.854 3.85688 15.4443 4.26276 15.7466C4.39045 15.8411 4.54094 15.9025 4.69144 15.9167C4.69144 15.9639 4.696 16.0111 4.70056 16.0584C4.7416 16.304 4.86929 16.5212 5.06539 16.6724C5.22045 16.7905 5.40742 16.8519 5.5944 16.8519C5.62176 16.8519 5.64457 16.8519 5.67193 16.8471C5.72209 17.0549 5.84067 17.2486 6.02308 17.3856C6.1827 17.5037 6.36967 17.5651 6.55209 17.5651C6.64786 17.5651 6.74363 17.5509 6.83484 17.5178C6.89868 17.6642 6.99901 17.7918 7.12671 17.8862C7.28176 18.0043 7.46874 18.0657 7.65571 18.0657C7.70588 18.0657 7.75604 18.061 7.80165 18.0515C8.04335 18.009 8.25313 17.8768 8.3945 17.6737L8.57692 17.4092L9.44796 17.9287C9.60302 18.0232 9.77631 18.0657 9.94049 18.0657C10.2096 18.0657 10.4695 17.9524 10.6519 17.7351C10.7522 17.6123 10.8252 17.4706 10.8617 17.3147C11.0396 17.3761 11.2265 17.3903 11.4181 17.3572C11.7282 17.3053 11.9972 17.1305 12.1797 16.866C12.2982 16.6913 12.3758 16.4882 12.394 16.2803C12.4031 16.1859 12.4031 16.0914 12.3894 16.0017C12.7087 15.9828 13.0142 15.8364 13.224 15.5719C13.4019 15.3499 13.4931 15.0807 13.4931 14.7973C13.5569 14.802 13.6253 14.7973 13.6937 14.7831C13.9445 14.7406 14.1634 14.5989 14.3094 14.3864C14.4325 14.2069 14.51 13.9991 14.5328 13.7771C14.5328 13.7676 14.5328 13.7535 14.5374 13.744C14.6012 13.659 14.6605 13.5692 14.7153 13.4795C15.0482 12.9316 15.4814 12.4924 15.9785 12.1854L16.1472 12.5679L18.7375 11.3683ZM17.8939 11.0329L16.471 11.6942L14.6058 7.40079L16.0287 6.73955L17.8939 11.0329ZM4.28556 6.98515L5.55336 7.92978L2.99952 11.595L2.89463 11.7461L1.62683 10.8015L4.28556 6.98515ZM4.57743 14.8209L4.97418 14.2494L4.99699 14.2163C5.03803 14.1549 5.10188 14.1171 5.17028 14.103C5.18396 14.103 5.19764 14.0982 5.20677 14.0982C5.21133 14.0982 5.21133 14.0982 5.21589 14.0982C5.22957 14.0982 5.23869 14.0982 5.25237 14.103C5.25693 14.103 5.25693 14.103 5.26149 14.103C5.27061 14.103 5.27973 14.1077 5.29341 14.1124C5.29341 14.1124 5.29797 14.1124 5.30253 14.1124C5.31166 14.1171 5.32534 14.1219 5.33446 14.1266C5.33902 14.1266 5.33902 14.1313 5.34358 14.1313C5.3527 14.136 5.36638 14.1455 5.3755 14.1502C5.40286 14.1738 5.43023 14.1974 5.44847 14.2305C5.47127 14.273 5.48495 14.3202 5.48951 14.3675C5.48951 14.3816 5.48951 14.3911 5.48951 14.4053C5.48951 14.4194 5.48495 14.4336 5.48039 14.443C5.47583 14.4667 5.46671 14.4855 5.45759 14.5044C5.45303 14.5139 5.44391 14.5233 5.43935 14.5375L5.01979 15.1421C4.97874 15.2035 4.9149 15.2413 4.84649 15.2554C4.77353 15.2696 4.70512 15.2507 4.64583 15.2082C4.51814 15.1184 4.49078 14.9437 4.57743 14.8209ZM5.44391 16.1387C5.38462 16.0961 5.34814 16.03 5.33446 15.9592C5.32078 15.8836 5.33902 15.8128 5.38006 15.7514L6.31951 14.4005C6.36055 14.3391 6.4244 14.3013 6.49281 14.2872C6.50649 14.2872 6.52017 14.2824 6.53385 14.2824C6.53841 14.2824 6.53841 14.2824 6.54297 14.2824C6.55665 14.2824 6.56577 14.2824 6.57945 14.2872C6.58401 14.2872 6.58401 14.2872 6.58401 14.2872C6.59314 14.2872 6.60682 14.2919 6.61594 14.2966H6.6205C6.63418 14.3013 6.6433 14.3061 6.65242 14.3108C6.65698 14.3108 6.65698 14.3155 6.66154 14.3155C6.67066 14.3202 6.68434 14.3297 6.69346 14.3344C6.77099 14.3911 6.81204 14.4903 6.80291 14.5895C6.80291 14.6036 6.79835 14.6131 6.79835 14.6272C6.79835 14.632 6.79379 14.6367 6.79379 14.6414C6.79379 14.6461 6.78923 14.6556 6.78923 14.6603C6.78923 14.665 6.78467 14.6697 6.78467 14.6745C6.78011 14.6792 6.78011 14.6886 6.77555 14.6934C6.77099 14.6981 6.76643 14.7028 6.76643 14.7123C6.76187 14.717 6.76187 14.7217 6.75731 14.7264L5.81786 16.0773C5.77682 16.1387 5.71297 16.1764 5.64457 16.1906C5.5716 16.2001 5.49863 16.1812 5.44391 16.1387ZM6.39704 16.8519C6.27847 16.7621 6.2511 16.5874 6.33775 16.4646L7.2772 15.1137C7.28632 15.0996 7.29544 15.0901 7.30912 15.0759C7.31368 15.0712 7.31368 15.0712 7.31824 15.0665C7.32736 15.057 7.34105 15.0476 7.35473 15.0382C7.35929 15.0382 7.35929 15.0334 7.36385 15.0334C7.37753 15.0287 7.38665 15.0193 7.40033 15.0145C7.40489 15.0145 7.40489 15.0145 7.40489 15.0098C7.41857 15.0051 7.43225 15.0004 7.4505 14.9956C7.45506 14.9956 7.45962 14.9956 7.46418 14.9909C7.46874 14.9909 7.46874 14.9909 7.4733 14.9909C7.48242 14.9909 7.49154 14.9909 7.4961 14.9909H7.50066C7.51434 14.9909 7.52802 14.9909 7.5417 14.9956C7.55539 14.9956 7.56907 15.0004 7.57819 15.0051C7.57819 15.0051 7.57819 15.0051 7.58275 15.0051C7.59643 15.0098 7.60555 15.0145 7.61923 15.0193C7.61923 15.0193 7.62379 15.0193 7.62379 15.024C7.63291 15.0287 7.64659 15.0382 7.65571 15.0429C7.70588 15.0807 7.7378 15.1326 7.75604 15.1893C7.76516 15.2224 7.76973 15.2601 7.76516 15.2979C7.7606 15.3452 7.74236 15.3924 7.715 15.4349L6.77555 16.7857C6.68434 16.9133 6.52017 16.9416 6.39704 16.8519ZM7.70132 17.395C7.62835 17.4092 7.55994 17.3903 7.50066 17.3478C7.44137 17.3053 7.40489 17.2392 7.39121 17.1683C7.37753 17.0927 7.39577 17.0219 7.43681 16.9605L7.85637 16.3559C7.86549 16.3465 7.87005 16.337 7.87918 16.3276C7.88374 16.3229 7.8883 16.3181 7.89286 16.3134C7.90198 16.304 7.9111 16.2992 7.92022 16.2898C7.92478 16.2851 7.92934 16.2803 7.9339 16.2803C7.94302 16.2756 7.9567 16.2709 7.96582 16.2662C7.97038 16.2615 7.97494 16.2615 7.9795 16.2567C7.99775 16.252 8.01143 16.2473 8.02967 16.2426C8.04335 16.2426 8.05703 16.2378 8.06615 16.2378C8.07071 16.2378 8.07071 16.2378 8.07527 16.2378C8.08895 16.2378 8.09808 16.2378 8.11176 16.2426C8.11632 16.2426 8.11632 16.2426 8.12088 16.2426C8.13 16.2426 8.13912 16.2473 8.1528 16.252H8.15736C8.16648 16.2567 8.18016 16.2615 8.18928 16.2662C8.19384 16.2662 8.19384 16.2709 8.19841 16.2709C8.20753 16.2756 8.22121 16.2851 8.23033 16.2898C8.30785 16.3465 8.3489 16.4457 8.33978 16.5448C8.33522 16.5921 8.31698 16.6393 8.28961 16.6818L7.87918 17.2864C7.83357 17.3431 7.77429 17.3856 7.70132 17.395ZM13.8989 13.7157C13.8898 13.8196 13.8533 13.9188 13.794 14.0038C13.7439 14.0746 13.6755 14.1171 13.5934 14.1313C13.5113 14.1455 13.4292 14.1266 13.3654 14.0746L13.0097 13.8101L12.3119 13.2906C12.1705 13.1819 11.9699 13.2197 11.865 13.3662C11.7601 13.5126 11.7966 13.7204 11.938 13.829L12.6357 14.3486C12.7588 14.4383 12.8318 14.5753 12.8546 14.7264C12.8728 14.8776 12.8318 15.0287 12.736 15.1515C12.5627 15.3735 12.2253 15.4066 11.9881 15.2318L11.9197 15.1799L11.9152 15.1751L11.0532 14.5328C10.9119 14.4241 10.7112 14.4619 10.6063 14.6083C10.5014 14.7548 10.5379 14.9626 10.6793 15.0712L11.5412 15.7136C11.6917 15.8269 11.7738 16.0206 11.7555 16.2189C11.7464 16.3181 11.7145 16.4079 11.6598 16.4834C11.5777 16.6015 11.4545 16.6818 11.3132 16.7054C11.1718 16.7291 11.0304 16.696 10.9164 16.6062L10.4969 16.2945C10.4969 16.2945 10.4923 16.2945 10.4923 16.2898L9.67598 15.6805C9.53461 15.5719 9.33395 15.6097 9.22906 15.7561C9.12417 15.9025 9.16065 16.1103 9.30203 16.2189L10.1183 16.8282C10.1868 16.8802 10.2324 16.9605 10.2415 17.0502C10.2506 17.14 10.2232 17.2297 10.1685 17.3006C10.0727 17.4139 9.89944 17.4375 9.76263 17.3525L8.92807 16.8519C8.93263 16.8424 8.93719 16.8282 8.93719 16.8188C8.94175 16.8093 8.94175 16.7999 8.94631 16.7952C8.95088 16.7857 8.95088 16.7716 8.95544 16.7621C8.95544 16.7527 8.96 16.7479 8.96 16.7385C8.96456 16.7243 8.96456 16.7102 8.96912 16.7007C8.96912 16.6913 8.97368 16.6865 8.97368 16.6771C8.97824 16.6582 8.97824 16.6346 8.9828 16.6157C9.01472 16.2803 8.87335 15.9545 8.60884 15.7561C8.58604 15.7372 8.56324 15.723 8.54044 15.7088C8.53132 15.7041 8.52676 15.6994 8.51764 15.6947C8.49939 15.6852 8.48571 15.6758 8.46747 15.6663C8.45835 15.6616 8.44923 15.6569 8.44011 15.6522C8.42643 15.6474 8.40818 15.638 8.38994 15.6333C8.38082 15.6286 8.3717 15.6238 8.35802 15.6238C8.35346 15.6238 8.34434 15.6191 8.33978 15.6191V15.6144C8.34434 15.6049 8.3489 15.5908 8.35346 15.5766C8.35802 15.5671 8.35802 15.5624 8.36258 15.553C8.36714 15.5388 8.3717 15.5294 8.3717 15.5152C8.3717 15.5057 8.37626 15.501 8.37626 15.4916C8.38082 15.4774 8.38082 15.4632 8.38538 15.4491C8.38538 15.4443 8.38994 15.4349 8.38994 15.4302C8.3945 15.4113 8.3945 15.3877 8.39906 15.3688C8.43099 15.057 8.30785 14.75 8.07527 14.5517C8.06159 14.5375 8.04335 14.5233 8.02967 14.5139C8.00687 14.495 7.9795 14.4808 7.9567 14.4667C7.94758 14.4619 7.94302 14.4572 7.9339 14.4525C7.91566 14.443 7.89742 14.4336 7.87918 14.4241C7.87005 14.4194 7.86093 14.4147 7.85637 14.4147C7.83813 14.4053 7.81989 14.4005 7.79709 14.3911C7.78797 14.3864 7.78341 14.3864 7.77428 14.3816C7.75148 14.3769 7.73324 14.3675 7.71044 14.3627C7.70588 14.3627 7.69676 14.358 7.6922 14.358C7.6694 14.3533 7.64659 14.3486 7.62379 14.3439C7.61923 14.3439 7.61467 14.3439 7.61011 14.3439C7.58731 14.3391 7.55995 14.3391 7.53714 14.3391C7.53258 14.3391 7.52802 14.3391 7.52802 14.3391C7.50066 14.3391 7.4733 14.3391 7.4505 14.3391H7.44594C7.44137 14.3391 7.43681 14.3391 7.43225 14.3391C7.43225 14.3344 7.42769 14.3297 7.42769 14.325C7.42313 14.3061 7.41857 14.2872 7.41401 14.2683C7.41401 14.2588 7.40945 14.2541 7.40489 14.2447C7.40033 14.2258 7.39121 14.2069 7.38209 14.188C7.38209 14.1833 7.37753 14.1785 7.37753 14.1785C7.36841 14.1549 7.35929 14.136 7.34561 14.1124C7.34104 14.1077 7.34105 14.103 7.33649 14.0935C7.32736 14.0794 7.31824 14.0605 7.30912 14.0463C7.30456 14.0416 7.3 14.0321 7.29544 14.0274C7.28176 14.0085 7.27264 13.9896 7.25896 13.9754L7.2544 13.9707C7.24072 13.9518 7.22247 13.9329 7.20879 13.914C7.20423 13.9093 7.19967 13.9046 7.19511 13.8999C7.18143 13.8857 7.16775 13.8715 7.15407 13.8621C7.14951 13.8574 7.14495 13.8526 7.13583 13.8479C7.11758 13.8337 7.09934 13.8149 7.07654 13.8007C6.88044 13.6543 6.63874 13.5929 6.4016 13.6354C6.37423 13.6401 6.34687 13.6448 6.32407 13.6543C6.31951 13.6543 6.31039 13.659 6.30583 13.659C6.28303 13.6637 6.26022 13.6732 6.23742 13.6826C6.23286 13.6826 6.23286 13.6826 6.2283 13.6873C6.2055 13.6968 6.17814 13.7062 6.15533 13.7204C6.15077 13.7251 6.14165 13.7251 6.13709 13.7298C6.11885 13.7393 6.09605 13.7535 6.07781 13.7629C6.07325 13.7629 6.06869 13.7676 6.06869 13.7676C6.04588 13.7818 6.02308 13.796 6.00484 13.8149C6.00028 13.8196 5.99572 13.8243 5.99116 13.829C5.98204 13.8337 5.97748 13.8432 5.96836 13.8479C5.95468 13.829 5.94099 13.8101 5.92731 13.7912C5.92275 13.7865 5.91819 13.7818 5.91363 13.7771C5.90451 13.7629 5.89083 13.7487 5.88171 13.7393C5.87715 13.7346 5.87259 13.7298 5.86347 13.7204C5.84979 13.7062 5.84066 13.6968 5.82698 13.6873C5.82242 13.6826 5.81786 13.6779 5.80874 13.6732C5.7905 13.659 5.77226 13.6448 5.75402 13.6307C5.55792 13.4842 5.31622 13.4228 5.07907 13.4653C5.05171 13.4701 5.02435 13.4748 5.00155 13.4842C4.99699 13.4842 4.98787 13.489 4.9833 13.489C4.95594 13.4984 4.93314 13.5031 4.90578 13.5126H4.90122C4.88298 13.5173 4.86929 13.5267 4.85105 13.5315C4.58199 12.8466 4.17611 12.2515 3.66534 11.7933L5.83154 8.68077C6.26022 8.94527 6.73907 9.12947 7.24984 9.22393L6.97621 12.0153C6.93517 12.4357 7.2316 12.8088 7.63291 12.8513C8.01143 12.8891 8.37626 12.7758 8.66813 12.5302C8.96 12.2845 9.14241 11.9303 9.18346 11.543L9.25642 10.8109C9.62582 10.7967 9.98609 10.6834 10.3053 10.4897L13.6846 13.1914C13.7074 13.2103 13.7211 13.2245 13.7302 13.2339L13.7348 13.2386C13.7393 13.2434 13.7484 13.2528 13.753 13.2575L13.7621 13.267C13.7667 13.2717 13.7667 13.2764 13.7712 13.2764L13.7804 13.2859C13.7849 13.2906 13.7895 13.2953 13.794 13.3L13.8214 13.3425C13.8351 13.3614 13.8442 13.3803 13.8488 13.3945L13.8533 13.4039C13.8579 13.4134 13.8579 13.4181 13.8625 13.4276C13.867 13.437 13.8716 13.4464 13.8716 13.4559C13.8761 13.4653 13.8761 13.4748 13.8807 13.4842L13.8898 13.5126C13.8944 13.5362 13.8989 13.5598 13.9035 13.5787V13.5881C13.9035 13.5976 13.9035 13.607 13.9081 13.6165V13.6212V13.6448C13.9035 13.6637 13.9035 13.6921 13.8989 13.7157ZM14.3139 12.9175L14.3094 12.908C14.3048 12.9033 14.3048 12.9033 14.3003 12.8986C14.2911 12.8844 14.282 12.8749 14.2729 12.8655C14.2729 12.8655 14.2729 12.8655 14.2683 12.8608C14.2638 12.8561 14.2592 12.8513 14.2546 12.8419C14.2501 12.8372 14.2501 12.8372 14.2455 12.8324C14.241 12.823 14.2318 12.8183 14.2273 12.8088L14.2227 12.8041C14.2136 12.7947 14.209 12.7899 14.1999 12.7805C14.1908 12.771 14.1862 12.7616 14.1771 12.7569C14.1452 12.7238 14.1133 12.6955 14.0677 12.6577L10.3099 9.65374L10.1138 9.80488C9.78999 10.0552 9.39324 10.1733 8.98736 10.1308L8.66813 10.0977L8.53588 11.4627C8.51307 11.6753 8.41274 11.8689 8.25313 12.0059C8.09351 12.1429 7.8883 12.2043 7.68308 12.1806C7.62835 12.1759 7.59187 12.124 7.59643 12.072L7.82445 9.75293L9.45708 8.92165L9.90856 8.69022L9.93593 8.67605C10.0545 8.60048 10.1685 8.53907 10.2825 8.48712C10.5288 8.37376 10.7887 8.28875 11.0487 8.24624C11.377 8.18956 11.7145 8.18956 12.0474 8.24624C12.7862 8.37376 13.5204 8.31236 14.1862 8.08093L15.7049 11.5808C15.1713 11.902 14.6925 12.3554 14.3139 12.9175Z" fill="white"/>
<path d="M16.8221 11.2501C16.8404 11.2501 16.8541 11.2548 16.8723 11.2548C16.9818 11.2548 17.0866 11.217 17.1687 11.1462C17.2645 11.0612 17.3283 10.9478 17.342 10.8156C17.3694 10.5463 17.1779 10.3054 16.9179 10.2771C16.658 10.2488 16.4254 10.4471 16.398 10.7164C16.3752 10.9856 16.5668 11.2265 16.8221 11.2501ZM16.7173 10.7494C16.7264 10.6691 16.7902 10.6077 16.8677 10.6077C16.8723 10.6077 16.8769 10.6077 16.8814 10.6077C16.9225 10.6125 16.959 10.6313 16.9863 10.6644C17.0137 10.6975 17.0228 10.74 17.0182 10.7825C17.0137 10.825 16.9954 10.8628 16.9635 10.8911C16.9316 10.9195 16.8905 10.9289 16.8495 10.9242C16.772 10.9147 16.7127 10.8344 16.7173 10.7494Z" fill="white"/>
<path d="M3.10429 10.7306C3.13165 10.4614 2.94011 10.2205 2.68017 10.1921C2.42023 10.1638 2.18764 10.3622 2.16028 10.6314C2.1466 10.7637 2.18308 10.8912 2.26517 10.9904C2.34726 11.0896 2.45671 11.1557 2.5844 11.1698C2.60264 11.1698 2.61632 11.1746 2.63457 11.1746C2.87627 11.1698 3.08149 10.9856 3.10429 10.7306ZM2.51599 10.7825C2.48863 10.7495 2.47951 10.707 2.48407 10.6645C2.49319 10.5842 2.55704 10.5228 2.63457 10.5228C2.63913 10.5228 2.64369 10.5228 2.64825 10.5228C2.73033 10.5322 2.79418 10.6078 2.78506 10.6975C2.77594 10.7825 2.70297 10.8487 2.61632 10.8392C2.57984 10.8345 2.54336 10.8156 2.51599 10.7825Z" fill="white"/>
<path d="M9.23357 5.49732C10.6792 5.49732 11.8558 4.27874 11.8558 2.7815C11.8558 1.28425 10.6792 0.0656738 9.23357 0.0656738C7.78792 0.0656738 6.61133 1.28425 6.61133 2.7815C6.61133 4.27874 7.78792 5.49732 9.23357 5.49732ZM9.23357 0.731641C10.3281 0.731641 11.2174 1.65266 11.2174 2.78622C11.2174 3.91978 10.3281 4.8408 9.23357 4.8408C8.13907 4.8408 7.24979 3.91978 7.24979 2.78622C7.24979 1.65266 8.13907 0.731641 9.23357 0.731641Z" fill="white"/>
<path d="M8.74558 3.5183C8.79118 3.57025 8.85047 3.61276 8.91887 3.64582C8.98728 3.67888 9.06937 3.7025 9.16058 3.71195V3.83475C9.16058 3.87253 9.16514 3.90087 9.17882 3.91977C9.1925 3.93866 9.21074 3.9481 9.2381 3.9481C9.27003 3.9481 9.28827 3.93866 9.29739 3.91504C9.30651 3.89143 9.31107 3.85836 9.31107 3.81113V3.71667C9.42508 3.70722 9.52085 3.67416 9.60294 3.62221C9.68503 3.57025 9.74887 3.50413 9.78991 3.42383C9.83096 3.34354 9.85376 3.2538 9.85376 3.15934C9.85376 3.08376 9.84008 3.01764 9.81272 2.95152C9.78535 2.89011 9.74887 2.83344 9.69871 2.79093C9.6531 2.74842 9.59838 2.71536 9.54365 2.69174C9.48437 2.66813 9.40684 2.64451 9.30651 2.61617V2.10607C9.40684 2.13913 9.47068 2.20998 9.49349 2.30916C9.51629 2.39418 9.56645 2.44141 9.64398 2.44141C9.68502 2.44141 9.72151 2.42724 9.74887 2.39418C9.77623 2.36112 9.79448 2.32806 9.79448 2.28555C9.79448 2.24776 9.78535 2.20998 9.76711 2.16275C9.74887 2.12024 9.72151 2.07301 9.68503 2.03522C9.63942 1.97854 9.5847 1.94076 9.52541 1.91242C9.46612 1.88408 9.39316 1.86519 9.30651 1.86046V1.72821C9.30651 1.66209 9.27915 1.62903 9.22898 1.62903C9.17882 1.62903 9.15602 1.66209 9.15602 1.73294V1.86519C8.99184 1.87936 8.86871 1.93131 8.7775 2.02105C8.68629 2.11079 8.65437 2.21942 8.65437 2.36112C8.65437 2.46975 8.67717 2.55949 8.72278 2.62562C8.76838 2.69646 8.8231 2.74842 8.89607 2.7862C8.96904 2.82399 9.05569 2.85705 9.16058 2.89011V3.46162C9.10585 3.44745 9.06481 3.42383 9.03288 3.39549C9.00096 3.36715 8.97816 3.33409 8.95992 3.29631C8.94168 3.25852 8.92343 3.21129 8.90519 3.14044C8.89607 3.10738 8.87783 3.08376 8.85503 3.0696C8.83223 3.0507 8.8003 3.04598 8.76382 3.04598C8.71821 3.04598 8.68173 3.06015 8.65437 3.09321C8.62701 3.12627 8.60876 3.15934 8.60876 3.20184C8.60876 3.2538 8.61789 3.31048 8.64069 3.36715C8.66349 3.41439 8.69997 3.46634 8.74558 3.5183ZM9.31107 2.93262C9.39316 2.96096 9.457 2.99402 9.49805 3.03181C9.53909 3.06959 9.56189 3.12627 9.56189 3.19712C9.56189 3.26324 9.53909 3.31992 9.49805 3.37188C9.45244 3.42383 9.39316 3.45689 9.31107 3.47106V2.93262ZM9.00096 2.4792C8.96448 2.44614 8.9508 2.39891 8.9508 2.33278C8.9508 2.26666 8.96904 2.2147 9.00552 2.18164C9.042 2.14858 9.09673 2.12024 9.16058 2.10135V2.57366C9.09217 2.5406 9.03744 2.51226 9.00096 2.4792Z" fill="white"/>
</svg>
