<svg width="24" height="24" viewBox="0 0 24 24" fill="none" xmlns="http://www.w3.org/2000/svg">
<g clip-path="url(#clip0_13_52)">
<path d="M2.898 12.581C3.18089 12.3413 3.51418 12.1684 3.87308 12.0753C4.23197 11.9821 4.60725 11.9711 4.971 12.043C5.53381 12.1528 6.03805 12.4621 6.391 12.914L6.81 11.891C6.59604 11.6986 6.35846 11.5343 6.103 11.402C6.4965 11.0729 6.77922 10.6307 6.91281 10.1354C7.04641 9.64008 7.0244 9.11568 6.84978 8.63332C6.67516 8.15097 6.35638 7.73401 5.93669 7.43902C5.51701 7.14402 5.01673 6.98528 4.50374 6.98432C3.99075 6.98336 3.48989 7.14024 3.0691 7.43366C2.64832 7.72709 2.32798 8.14286 2.15156 8.62456C1.97514 9.10626 1.95118 9.63057 2.08292 10.1264C2.21467 10.6221 2.49574 11.0654 2.888 11.396C2.66299 11.5118 2.45139 11.6519 2.257 11.814C1.86315 12.142 1.54636 12.5527 1.32911 13.0169C1.11187 13.4811 0.999502 13.9874 1 14.5V16H2V14.5C1.99949 14.1338 2.07969 13.772 2.2349 13.4403C2.39011 13.1086 2.61652 12.8152 2.898 12.581ZM3 9.49998C3 9.2033 3.08798 8.9133 3.2528 8.66662C3.41762 8.41995 3.65189 8.22769 3.92598 8.11416C4.20007 8.00063 4.50167 7.97092 4.79264 8.0288C5.08361 8.08668 5.35088 8.22954 5.56066 8.43932C5.77044 8.6491 5.9133 8.91637 5.97118 9.20734C6.02906 9.49831 5.99935 9.79991 5.88582 10.074C5.77229 10.3481 5.58003 10.5824 5.33336 10.7472C5.08668 10.912 4.79667 11 4.5 11C4.10234 10.9994 3.72112 10.8412 3.43993 10.5601C3.15874 10.2789 3.00053 9.89764 3 9.49998ZM21.103 11.402C21.4966 11.073 21.7795 10.6309 21.9132 10.1356C22.047 9.64037 22.0251 9.11597 21.8506 8.63356C21.6762 8.15115 21.3575 7.73409 20.9379 7.43897C20.5183 7.14384 20.0181 6.98494 19.5051 6.98382C18.9921 6.98271 18.4912 7.13943 18.0703 7.43272C17.6495 7.72602 17.329 8.14168 17.1524 8.62333C16.9759 9.10497 16.9517 9.62928 17.0833 10.1251C17.2149 10.6209 17.4958 11.0643 17.888 11.395C17.6629 11.511 17.4513 11.6516 17.257 11.814C17.231 11.835 17.213 11.864 17.187 11.886L17.599 12.892C17.8774 12.5452 18.2464 12.2822 18.6651 12.1324C19.0838 11.9825 19.5358 11.9516 19.971 12.043C20.5575 12.1763 21.0799 12.5083 21.4496 12.9827C21.8194 13.4571 22.0138 14.0447 22 14.646V16H23V14.646C23.008 13.984 22.8357 13.3323 22.5015 12.7608C22.1673 12.1893 21.6839 11.7196 21.103 11.402ZM18 9.49998C18 9.2033 18.088 8.9133 18.2528 8.66662C18.4176 8.41995 18.6519 8.22769 18.926 8.11416C19.2001 8.00063 19.5017 7.97092 19.7926 8.0288C20.0836 8.08668 20.3509 8.22954 20.5607 8.43932C20.7704 8.6491 20.9133 8.91637 20.9712 9.20734C21.0291 9.49831 20.9994 9.79991 20.8858 10.074C20.7723 10.3481 20.58 10.5824 20.3334 10.7472C20.0867 10.912 19.7967 11 19.5 11C19.1023 10.9994 18.7211 10.8412 18.4399 10.5601C18.1587 10.2789 18.0005 9.89764 18 9.49998ZM10 8.99998V7.99998C9.99932 7.69708 10.0678 7.39803 10.2002 7.12561C10.3326 6.85319 10.5254 6.61458 10.764 6.42798C11.0067 6.23826 11.2896 6.10655 11.591 6.04294C11.8924 5.97933 12.2043 5.9855 12.503 6.06098C12.9452 6.18987 13.332 6.46187 13.603 6.83432C13.8739 7.20677 14.0135 7.65861 14 8.11898V8.99998H15V8.11998C15.0028 7.58827 14.872 7.06439 14.6195 6.59645C14.367 6.12852 14.001 5.73154 13.555 5.44198C13.9615 5.11882 14.2573 4.67708 14.4013 4.17812C14.5453 3.67916 14.5303 3.14775 14.3585 2.65769C14.1866 2.16763 13.8664 1.74325 13.4423 1.4435C13.0183 1.14374 12.5114 0.983488 11.992 0.984996C11.4727 0.986504 10.9668 1.1497 10.5445 1.45191C10.1221 1.75412 9.8044 2.18035 9.6354 2.6714C9.46639 3.16245 9.4545 3.69394 9.60138 4.19206C9.74826 4.69017 10.0466 5.13018 10.455 5.45098C10.3478 5.50854 10.2443 5.57266 10.145 5.64298C9.78739 5.92283 9.49836 6.28061 9.29994 6.68907C9.10152 7.09752 8.99893 7.54588 9 7.99998V8.99998H10ZM10.5 3.49998C10.5 3.2033 10.588 2.91329 10.7528 2.66662C10.9176 2.41995 11.1519 2.22769 11.426 2.11416C11.7001 2.00063 12.0017 1.97092 12.2926 2.0288C12.5836 2.08668 12.8509 2.22954 13.0607 2.43932C13.2704 2.6491 13.4133 2.91637 13.4712 3.20734C13.5291 3.49831 13.4994 3.79991 13.3858 4.074C13.2723 4.34809 13.08 4.58236 12.8334 4.74718C12.5867 4.912 12.2967 4.99998 12 4.99998C11.6023 4.99945 11.2211 4.84124 10.9399 4.56005C10.6587 4.27886 10.5005 3.89764 10.5 3.49998ZM19.963 21.31L19.037 21.69L14.664 11H9.336L4.963 21.69L4.037 21.31L8.41 10.622C8.48476 10.4378 8.61287 10.2802 8.77787 10.1693C8.94287 10.0585 9.13723 9.99954 9.336 9.99998H14.664C14.8624 9.99944 15.0564 10.0582 15.2212 10.1686C15.386 10.2791 15.5141 10.4363 15.589 10.62L19.963 21.31Z" fill="white" stroke="white"/>
<path d="M0 0H24V24H0V0Z" stroke="white"/>
</g>
<defs>
<clipPath id="clip0_13_52">
<rect width="24" height="24" fill="white"/>
</clipPath>
</defs>
</svg>
