<svg width="20" height="21" viewBox="0 0 20 21" fill="none" xmlns="http://www.w3.org/2000/svg">
<g id="files">
<g clip-path="url(#clip0_479_23061)">
<path id="Vector" d="M12.5 2.75V6.08333C12.5 6.30435 12.5878 6.51631 12.7441 6.67259C12.9004 6.82887 13.1123 6.91667 13.3333 6.91667H16.6667" stroke="#25408F" stroke-width="1.04881" stroke-linecap="round" stroke-linejoin="round"/>
<path id="Vector_2" d="M15 14.4167H9.16667C8.72464 14.4167 8.30072 14.2411 7.98816 13.9285C7.6756 13.616 7.5 13.192 7.5 12.75V4.41667C7.5 3.97464 7.6756 3.55072 7.98816 3.23816C8.30072 2.92559 8.72464 2.75 9.16667 2.75H12.5L16.6667 6.91667V12.75C16.6667 13.192 16.4911 13.616 16.1785 13.9285C15.8659 14.2411 15.442 14.4167 15 14.4167Z" stroke="#25408F" stroke-width="1.5" stroke-linecap="round" stroke-linejoin="round"/>
<path id="Vector_3" d="M13.3334 14.4163V16.083C13.3334 16.525 13.1578 16.949 12.8453 17.2615C12.5327 17.5741 12.1088 17.7497 11.6667 17.7497H5.83341C5.39139 17.7497 4.96746 17.5741 4.6549 17.2615C4.34234 16.949 4.16675 16.525 4.16675 16.083V7.74967C4.16675 7.30765 4.34234 6.88372 4.6549 6.57116C4.96746 6.2586 5.39139 6.08301 5.83341 6.08301H7.50008" stroke="#25408F" stroke-width="1.5" stroke-linecap="round" stroke-linejoin="round"/>
</g>
</g>
<defs>
<clipPath id="clip0_479_23061">
<rect y="0.25" width="20" height="20" rx="5" fill="white"/>
</clipPath>
</defs>
</svg>
