<svg width="24" height="24" viewBox="0 0 24 24" fill="none" xmlns="http://www.w3.org/2000/svg">
<path fill-rule="evenodd" clip-rule="evenodd" d="M17 5L21 9V22H5V5H17ZM16.1716 7H7V20H19V9.82843L16.1716 7ZM14 2L16 4H4V19H2V2H14ZM13.4517 9.83631C14.2081 10.8199 14.4633 12.0299 14.2209 12.9132C14.1907 13.0586 15.2568 14.1921 17.4193 16.3138C18.1264 17.0209 18.1264 17.728 17.4193 18.4351C16.7537 19.1006 16.0882 19.1397 15.4227 18.5525L11.9132 15.2209C11.0298 15.4633 9.81983 15.2081 8.83631 14.4517C8.11496 13.5032 7.86613 12.2634 8.06708 11.3748L9.60554 12.9132L11.144 12.144L11.9132 10.6055L10.3748 9.06708C11.2633 8.86615 12.5032 9.11494 13.4517 9.83631Z" fill="white"/>
</svg>
