<svg width="24" height="24" viewBox="0 0 24 24" fill="none" xmlns="http://www.w3.org/2000/svg">
<path d="M14.6394 9.89941C13.6592 9.89941 12.7376 10.3155 12.0023 11.0683C11.269 10.3078 10.3582 9.89941 9.36032 9.89941C7.61807 9.89941 6.079 11.1632 5.61767 12.9726C5.37593 13.9204 5.32537 15.4291 6.45656 17.233C7.46693 18.8442 9.20234 20.3283 11.6145 21.6442C11.7344 21.7096 11.8667 21.7423 11.9992 21.7423C12.1315 21.7423 12.264 21.7096 12.3838 21.6443C14.7967 20.3284 16.5326 18.8443 17.5434 17.2332C18.6752 15.4292 18.6247 13.9207 18.3831 12.9728C17.9215 11.1632 16.3822 9.89941 14.6394 9.89941ZM11.9991 20.019C6.72637 17.0061 6.96801 14.1788 7.17442 13.3696C7.44969 12.2898 8.36902 11.5061 9.36022 11.5061C10.1143 11.5061 10.8075 11.9649 11.3119 12.7981C11.4573 13.0385 11.7179 13.1853 11.999 13.1855C12.2799 13.1855 12.5406 13.0387 12.6861 12.7985C13.1911 11.965 13.8847 11.5061 14.6393 11.5061C15.6311 11.5061 16.5507 12.2898 16.826 13.3696C17.0324 14.1787 17.2736 17.0059 11.9991 20.019Z" fill="white"/>
<path d="M8.53431 8.52207C10.2614 8.52207 11.6664 7.1171 11.6664 5.39016C11.6664 3.66301 10.2614 2.25793 8.53431 2.25793C6.80716 2.25793 5.40198 3.66312 5.40198 5.39016C5.40198 7.1171 6.80716 8.52207 8.53431 8.52207ZM8.53431 3.86459C9.37556 3.86459 10.0598 4.54903 10.0598 5.39016C10.0598 6.23119 9.37545 6.91541 8.53431 6.91541C7.69307 6.91541 7.00863 6.23119 7.00863 5.39016C7.00863 4.54892 7.69296 3.86459 8.53431 3.86459Z" fill="white"/>
<path d="M15.4662 8.52207C17.1933 8.52207 18.5983 7.1171 18.5983 5.39016C18.5983 3.66301 17.1933 2.25793 15.4662 2.25793C13.7392 2.25793 12.3341 3.66312 12.3341 5.39016C12.334 7.1171 13.7391 8.52207 15.4662 8.52207ZM15.4662 3.86459C16.3074 3.86459 16.9917 4.54903 16.9917 5.39016C16.9917 6.23119 16.3074 6.91541 15.4662 6.91541C14.625 6.91541 13.9408 6.23119 13.9408 5.39016C13.9407 4.54892 14.625 3.86459 15.4662 3.86459Z" fill="white"/>
<path d="M2.89905 7.0072C1.30053 7.0072 0 8.30784 0 9.90657C0 11.5051 1.30053 12.8055 2.89905 12.8055C4.49778 12.8055 5.79831 11.505 5.79831 9.90657C5.79842 8.30784 4.49778 7.0072 2.89905 7.0072ZM2.89905 11.1989C2.18644 11.1989 1.60666 10.6192 1.60666 9.90657C1.60666 9.19386 2.18644 8.61396 2.89905 8.61396C3.61176 8.61396 4.19166 9.19386 4.19166 9.90657C4.19176 10.6192 3.61187 11.1989 2.89905 11.1989Z" fill="white"/>
<path d="M21.1007 7.0072C19.5021 7.0072 18.2017 8.30784 18.2017 9.90647C18.2017 11.505 19.5022 12.8054 21.1007 12.8054C22.6994 12.8054 24 11.5049 24 9.90647C24 8.30784 22.6994 7.0072 21.1007 7.0072ZM21.1007 11.1989C20.3881 11.1989 19.8083 10.6191 19.8083 9.90657C19.8083 9.19386 20.3881 8.61396 21.1007 8.61396C21.8134 8.61396 22.3933 9.19386 22.3933 9.90657C22.3933 10.6192 21.8134 11.1989 21.1007 11.1989Z" fill="white"/>
</svg>
