<svg width="24" height="24" viewBox="0 0 24 24" fill="none" xmlns="http://www.w3.org/2000/svg">
<g clip-path="url(#clip0_14_90)">
<path d="M22.9093 18.9994H18.5458V17.3167H19.3869C19.6885 17.3167 19.9327 17.0729 19.9327 16.7709C19.9327 16.4693 19.6885 16.2261 19.3869 16.2261H16.613C16.3114 16.2261 16.0672 16.4693 16.0672 16.7709C16.0672 17.073 16.3114 17.3167 16.613 17.3167H17.4541V18.9994H8.72758V15.2223H13.0906C13.3078 15.2223 13.5042 15.0932 13.5911 14.8943C13.6771 14.6953 13.638 14.464 13.4901 14.3057L10.7176 11.3229H11.9989C12.2156 11.3229 12.412 11.1943 12.4995 10.9952C12.5854 10.7963 12.5464 10.5651 12.3984 10.4062L9.84413 7.6583H11.126C11.3432 7.6583 11.54 7.53022 11.6264 7.33064C11.7124 7.13224 11.6733 6.90049 11.526 6.74108L8.03587 2.98529C7.82914 2.76239 7.4432 2.76239 7.23697 2.98529L3.74686 6.74108C3.59891 6.90049 3.55983 7.13224 3.64581 7.33064C3.73331 7.53014 3.92918 7.6583 4.14636 7.6583H5.42813L2.87394 10.4062C2.72707 10.5651 2.68699 10.7963 2.77389 10.9952C2.86038 11.1942 3.05726 11.3229 3.27343 11.3229H4.55571L1.78223 14.3057C1.63478 14.464 1.5952 14.6953 1.68168 14.8943C1.76867 15.0932 1.96505 15.2223 2.18173 15.2223H6.54577V18.9994H1.09061C0.488589 18.9994 0 19.488 0 20.0906C0 20.6932 0.488589 21.1818 1.09061 21.1818H22.9094C23.5114 21.1818 24 20.6932 24 20.0906C23.9999 19.488 23.5113 18.9994 22.9093 18.9994Z" fill="white"/>
</g>
<defs>
<clipPath id="clip0_14_90">
<rect width="24" height="24" fill="white"/>
</clipPath>
</defs>
</svg>
