<svg width="24" height="16" viewBox="0 0 24 16" fill="none" xmlns="http://www.w3.org/2000/svg">
<path d="M16.6659 5.01171C17.8622 5.01171 18.832 4.0419 18.832 2.84557C18.832 1.64925 17.8622 0.679443 16.6659 0.679443C15.4696 0.679443 14.4998 1.64925 14.4998 2.84557C14.4998 4.0419 15.4696 5.01171 16.6659 5.01171Z" fill="white"/>
<path d="M4.69062 6.17306C4.27379 6.5723 4.25965 7.23398 4.659 7.65081C5.05109 8.06007 5.71484 8.08671 6.13675 7.68243L8.74725 5.1813L12.6263 6.04981L9.16493 6.17067C6.49633 8.72758 6.87025 8.36954 6.81692 8.41964C7.37368 8.60454 7.8841 8.91597 8.31173 9.34074C8.31485 9.34387 8.31814 9.34673 8.32126 9.34985C8.44822 9.47681 8.6177 9.54672 8.79852 9.54672C8.97929 9.54672 9.14878 9.47681 9.27573 9.34985C9.70691 8.91867 10.2232 8.60348 10.7866 8.41752C11.1729 8.28998 11.5812 8.22272 12.0001 8.22272C12.6448 8.22272 13.265 8.3796 13.817 8.67519L15.0402 7.69122L18.2114 8.19867C18.4567 8.23792 18.7141 8.18914 18.9334 8.05117L23.0869 5.43654C23.5754 5.12903 23.7221 4.48371 23.4146 3.99522C23.1071 3.50673 22.4618 3.36002 21.9733 3.66748L18.153 6.07237L15.2794 5.61254L13.6478 3.58432C13.1563 2.97338 12.2747 2.86131 11.6475 3.31776L12.9301 3.96567C12.93 3.96567 8.71876 2.96226 8.71871 2.96226C8.38588 2.8879 8.0245 2.98138 7.76768 3.22713C7.76752 3.22724 7.76742 3.2274 7.76726 3.2275C7.3937 3.58522 5.0656 5.81407 4.69062 6.17306Z" fill="white"/>
<path d="M4.55786 11.0352C4.83539 10.7577 5.20439 10.6048 5.59691 10.6048C5.98943 10.6048 6.35838 10.7577 6.63591 11.0352C7.21354 11.6128 7.98157 11.931 8.79849 11.931C9.61541 11.931 10.3834 11.6129 10.961 11.0352C11.2386 10.7577 11.6076 10.6048 12.0001 10.6048C12.3926 10.6048 12.7615 10.7577 13.0391 11.0352C14.2315 12.2276 16.1717 12.2277 17.3643 11.0352C17.6418 10.7577 18.0108 10.6048 18.4033 10.6048C18.7958 10.6048 19.1648 10.7577 19.4423 11.0352C20.6347 12.2277 22.575 12.2277 23.7674 11.0352C24.0777 10.7249 24.0777 10.2219 23.7674 9.91165C23.4572 9.60139 22.9541 9.60139 22.6439 9.91165C22.3663 10.1892 21.9973 10.342 21.6048 10.342C21.2123 10.342 20.8434 10.1891 20.5658 9.91165C19.9882 9.33403 19.2202 9.01587 18.4032 9.01587C17.5863 9.01587 16.8183 9.33397 16.2407 9.91165C15.9631 10.1892 15.5941 10.342 15.2016 10.342C14.8091 10.342 14.4401 10.1891 14.1625 9.91165C12.9701 8.71916 11.0299 8.71916 9.83738 9.91165C9.55985 10.1892 9.1909 10.342 8.79838 10.342C8.40592 10.342 8.03692 10.1892 7.75938 9.91165C6.56695 8.71916 4.62671 8.71916 3.43427 9.91165C3.15674 10.1892 2.78774 10.342 2.39522 10.342C2.0027 10.342 1.6337 10.1891 1.35617 9.91165C1.04596 9.60139 0.542849 9.60139 0.232637 9.91165C-0.0776272 10.2219 -0.0776272 10.7249 0.232637 11.0352C1.42513 12.2277 3.36542 12.2277 4.55786 11.0352Z" fill="white"/>
<path d="M22.6438 13.3014C22.3663 13.5789 21.9973 13.7317 21.6048 13.7317C21.2122 13.7317 20.8433 13.5788 20.5658 13.3014C19.9881 12.7237 19.2201 12.4056 18.4032 12.4056C17.5863 12.4056 16.8182 12.7237 16.2406 13.3014C15.9631 13.5789 15.5941 13.7317 15.2015 13.7317C14.809 13.7317 14.4401 13.5788 14.1625 13.3014C12.9701 12.1089 11.0298 12.1089 9.83732 13.3014C9.55979 13.5789 9.19084 13.7317 8.79832 13.7317C8.40586 13.7317 8.03686 13.5789 7.75932 13.3014C6.56689 12.1089 4.62665 12.1089 3.43421 13.3014C3.15668 13.5789 2.78768 13.7317 2.39516 13.7317C2.00264 13.7317 1.63364 13.5788 1.35611 13.3014C1.0459 12.9911 0.542788 12.9911 0.232576 13.3014C-0.0776882 13.6116 -0.0776882 14.1146 0.232576 14.4249C1.42501 15.6174 3.36525 15.6174 4.55769 14.4249C4.83522 14.1474 5.20422 13.9946 5.59674 13.9946C5.98926 13.9946 6.35821 14.1474 6.63574 14.4249C7.21337 15.0025 7.9814 15.3207 8.79832 15.3207C9.61524 15.3207 10.3833 15.0026 10.9609 14.4249C11.2384 14.1474 11.6074 13.9946 11.9999 13.9946C12.3924 13.9946 12.7614 14.1474 13.039 14.4249C14.2313 15.6173 16.1716 15.6174 17.3641 14.4249C17.6417 14.1474 18.0107 13.9946 18.4031 13.9946C18.7956 13.9946 19.1646 14.1474 19.4421 14.4249C20.6346 15.6174 22.5748 15.6174 23.7672 14.4249C24.0775 14.1146 24.0775 13.6116 23.7672 13.3014C23.4571 12.9911 22.9541 12.9911 22.6438 13.3014Z" fill="white"/>
</svg>
